<svg width="35" height="35" viewBox="0 0 35 35" fill="none" xmlns="http://www.w3.org/2000/svg">
<path d="M22.75 17.4999C22.75 18.8923 22.1969 20.2277 21.2123 21.2123C20.2277 22.1968 18.8924 22.7499 17.5 22.7499C16.1076 22.7499 14.7722 22.1968 13.7877 21.2123C12.8031 20.2277 12.25 18.8923 12.25 17.4999C12.25 17.2007 12.2815 16.9084 12.3357 16.6249H10.5V23.6197C10.5 24.1062 10.8937 24.4999 11.3802 24.4999H23.6215C23.8546 24.4995 24.0781 24.4065 24.2428 24.2415C24.4075 24.0765 24.5 23.8528 24.5 23.6197V16.6249H22.6642C22.7185 16.9084 22.75 17.2007 22.75 17.4999ZM17.5 20.9999C17.9597 20.9998 18.4149 20.9092 18.8397 20.7331C19.2644 20.5571 19.6502 20.2991 19.9752 19.9739C20.3002 19.6488 20.558 19.2628 20.7338 18.838C20.9097 18.4132 21.0001 17.9579 21 17.4982C20.9999 17.0385 20.9092 16.5832 20.7332 16.1585C20.5571 15.7338 20.2992 15.348 19.974 15.023C19.6488 14.698 19.2628 14.4402 18.838 14.2644C18.4132 14.0885 17.958 13.9981 17.4982 13.9982C16.5698 13.9984 15.6794 14.3675 15.023 15.0242C14.3666 15.6809 13.998 16.5715 13.9982 17.4999C13.9985 18.4284 14.3675 19.3188 15.0242 19.9752C15.6809 20.6316 16.5715 21.0002 17.5 20.9999ZM21.7 13.8249H23.7982C23.9376 13.8249 24.0714 13.7697 24.1701 13.6713C24.2688 13.5729 24.3245 13.4393 24.325 13.2999V11.2017C24.325 11.062 24.2695 10.928 24.1707 10.8292C24.0719 10.7304 23.9379 10.6749 23.7982 10.6749H21.7C21.5603 10.6749 21.4263 10.7304 21.3275 10.8292C21.2287 10.928 21.1732 11.062 21.1732 11.2017V13.2999C21.175 13.5887 21.4112 13.8249 21.7 13.8249ZM17.5 0.699951C13.0444 0.699951 8.77121 2.46995 5.6206 5.62056C2.46999 8.77117 0.699997 13.0443 0.699997 17.4999C0.699997 21.9556 2.46999 26.2287 5.6206 29.3793C8.77121 32.53 13.0444 34.2999 17.5 34.2999C19.7062 34.2999 21.8908 33.8654 23.9291 33.0211C25.9673 32.1768 27.8194 30.9394 29.3794 29.3793C30.9394 27.8193 32.1769 25.9673 33.0212 23.929C33.8654 21.8908 34.3 19.7062 34.3 17.4999C34.3 15.2937 33.8654 13.1091 33.0212 11.0709C32.1769 9.0326 30.9394 7.18058 29.3794 5.62056C27.8194 4.06053 25.9673 2.82305 23.9291 1.97877C21.8908 1.1345 19.7062 0.699951 17.5 0.699951ZM26.25 24.3057C26.25 25.3749 25.375 26.2499 24.3057 26.2499H10.6942C9.62499 26.2499 8.74999 25.3749 8.74999 24.3057V10.6942C8.74999 9.62495 9.62499 8.74995 10.6942 8.74995H24.3057C25.375 8.74995 26.25 9.62495 26.25 10.6942V24.3057Z" fill="#F8F8F8"/>
</svg>
