<?xml version="1.0" encoding="UTF-8"?>
<svg xmlns="http://www.w3.org/2000/svg" xmlns:xlink="http://www.w3.org/1999/xlink" width="34px" height="34px" viewBox="0 0 34 34" version="1.1">
<g id="surface1">
<path style=" stroke:none;fill-rule:nonzero;fill:rgb(0%,0%,0%);fill-opacity:1;" d="M 18.714844 15.5 L 6.574219 4.875 C 5.625 4.042969 4.085938 4.042969 3.136719 4.875 C 2.191406 5.703125 2.191406 7.050781 3.136719 7.878906 L 13.570312 17 L 3.140625 26.125 C 2.191406 26.953125 2.191406 28.300781 3.140625 29.128906 C 3.613281 29.542969 4.234375 29.75 4.855469 29.75 C 5.480469 29.75 6.101562 29.542969 6.574219 29.128906 L 18.714844 18.503906 C 19.664062 17.671875 19.664062 16.328125 18.714844 15.5 Z M 33.285156 15.5 L 21.144531 4.875 C 20.195312 4.042969 18.660156 4.042969 17.710938 4.875 C 16.761719 5.703125 16.761719 7.050781 17.710938 7.878906 L 28.140625 17 L 17.714844 26.125 C 16.765625 26.953125 16.765625 28.300781 17.714844 29.128906 C 18.183594 29.542969 18.804688 29.75 19.429688 29.75 C 20.050781 29.75 20.671875 29.542969 21.144531 29.128906 L 33.289062 18.503906 C 34.234375 17.671875 34.234375 16.328125 33.285156 15.5 Z M 33.285156 15.5 "/>
</g>
</svg>
