<?xml version="1.0" encoding="UTF-8"?>
<svg xmlns="http://www.w3.org/2000/svg" xmlns:xlink="http://www.w3.org/1999/xlink" width="34px" height="34px" viewBox="0 0 34 34" version="1.1">
<g id="surface1">
<path style=" stroke:none;fill-rule:nonzero;fill:#ffffff;fill-opacity:1;" d="M 5.863281 17 L 16.289062 7.875 C 17.238281 7.046875 17.238281 5.699219 16.289062 4.871094 C 15.339844 4.039062 13.804688 4.039062 12.855469 4.871094 L 0.714844 15.496094 C -0.234375 16.324219 -0.234375 17.671875 0.714844 18.5 L 12.855469 29.125 C 13.328125 29.542969 13.949219 29.75 14.570312 29.75 C 15.195312 29.75 15.816406 29.542969 16.289062 29.128906 C 17.238281 28.296875 17.238281 26.953125 16.289062 26.121094 Z M 20.4375 17 L 30.867188 7.875 C 31.8125 7.046875 31.8125 5.699219 30.867188 4.871094 C 29.917969 4.039062 28.378906 4.039062 27.429688 4.871094 L 15.289062 15.496094 C 14.339844 16.324219 14.339844 17.671875 15.289062 18.5 L 27.429688 29.125 C 27.898438 29.542969 28.519531 29.75 29.144531 29.75 C 29.765625 29.75 30.386719 29.542969 30.859375 29.128906 C 31.808594 28.296875 31.808594 26.953125 30.859375 26.121094 Z M 20.4375 17 "/>
</g>
</svg>
